<mxfile host="Electron" modified="2024-05-27T19:47:37.838Z" agent="Mozilla/5.0 (X11; Linux x86_64) AppleWebKit/537.36 (KHTML, like Gecko) draw.io/24.4.8 Chrome/124.0.6367.230 Electron/30.0.8 Safari/537.36" etag="_vm-Ohc40j2qRjXWOL8c" version="24.3.1" type="device">
  <diagram name="Page-1" id="sa9JFJp9Bs_PlwBQQYeW">
    <mxGraphModel dx="1642" dy="1042" grid="1" gridSize="10" guides="1" tooltips="1" connect="1" arrows="1" fold="1" page="1" pageScale="1" pageWidth="850" pageHeight="1100" math="0" shadow="0">
      <root>
        <mxCell id="0" />
        <mxCell id="1" parent="0" />
        <mxCell id="wRtq7IlWN-tghe5e4vGb-9" style="edgeStyle=orthogonalEdgeStyle;rounded=0;orthogonalLoop=1;jettySize=auto;html=1;entryX=0;entryY=0.5;entryDx=0;entryDy=0;" edge="1" parent="1" source="eoRUsW0Bb9fulezQUEwn-4" target="wRtq7IlWN-tghe5e4vGb-2">
          <mxGeometry relative="1" as="geometry">
            <Array as="points">
              <mxPoint x="330" y="430" />
              <mxPoint x="330" y="430" />
            </Array>
          </mxGeometry>
        </mxCell>
        <mxCell id="eoRUsW0Bb9fulezQUEwn-4" value="&lt;font style=&quot;font-size: 24px;&quot;&gt;BOINC Server&lt;/font&gt;" style="swimlane;fontStyle=0;childLayout=stackLayout;horizontal=1;startSize=60;horizontalStack=0;resizeParent=1;resizeParentMax=0;resizeLast=0;collapsible=1;marginBottom=0;whiteSpace=wrap;html=1;" parent="1" vertex="1">
          <mxGeometry x="40" y="360" width="280" height="580" as="geometry">
            <mxRectangle x="280" y="560" width="190" height="60" as="alternateBounds" />
          </mxGeometry>
        </mxCell>
        <mxCell id="eoRUsW0Bb9fulezQUEwn-71" value="&lt;font style=&quot;font-size: 16px;&quot;&gt;The BOINC server is composed of three Docker Images:&lt;/font&gt;" style="text;html=1;align=center;verticalAlign=middle;whiteSpace=wrap;rounded=0;fontFamily=Helvetica;fontSize=12;fontColor=default;fontStyle=0;" parent="eoRUsW0Bb9fulezQUEwn-4" vertex="1">
          <mxGeometry y="60" width="280" height="50" as="geometry" />
        </mxCell>
        <mxCell id="eoRUsW0Bb9fulezQUEwn-64" value="&lt;span style=&quot;font-size: 16px;&quot;&gt;&lt;b&gt;boinc/server_mysql&lt;/b&gt;&lt;/span&gt;" style="swimlane;fontStyle=0;childLayout=stackLayout;horizontal=1;startSize=30;horizontalStack=0;resizeParent=1;resizeParentMax=0;resizeLast=0;collapsible=1;marginBottom=0;whiteSpace=wrap;html=1;rounded=0;strokeColor=default;align=center;verticalAlign=middle;fontFamily=Helvetica;fontSize=12;fontColor=default;fillColor=default;" parent="eoRUsW0Bb9fulezQUEwn-4" vertex="1">
          <mxGeometry y="110" width="280" height="160" as="geometry" />
        </mxCell>
        <mxCell id="eoRUsW0Bb9fulezQUEwn-72" value="&lt;font style=&quot;font-size: 14px;&quot;&gt;- Responsible for running the MYSQL database&amp;nbsp;&lt;/font&gt;&lt;span style=&quot;color: rgba(0, 0, 0, 0); font-family: monospace; font-size: 0px; text-wrap: nowrap;&quot;&gt;%3CmxGraphModel%3E%3Croot%3E%3CmxCell%20id%3D%220%22%2F%3E%3CmxCell%20id%3D%221%22%20parent%3D%220%22%2F%3E%3CmxCell%20id%3D%222%22%20value%3D%22%26lt%3Bfont%20style%3D%26quot%3Bfont-size%3A%2014px%3B%26quot%3B%26gt%3B-%20Stores%20custom%20Docker%20commands%20to%20modify%20the%20existing%20image%20to%20our%20project%26lt%3B%2Ffont%26gt%3B%22%20style%3D%22text%3BstrokeColor%3Dnone%3BfillColor%3Dnone%3Balign%3Dleft%3BverticalAlign%3Dmiddle%3BspacingLeft%3D4%3BspacingRight%3D4%3Boverflow%3Dhidden%3Bpoints%3D%5B%5B0%2C0.5%5D%2C%5B1%2C0.5%5D%5D%3BportConstraint%3Deastwest%3Brotatable%3D0%3BwhiteSpace%3Dwrap%3Bhtml%3D1%3BfontFamily%3DHelvetica%3BfontSize%3D12%3BfontColor%3Ddefault%3B%22%20vertex%3D%221%22%20parent%3D%221%22%3E%3CmxGeometry%20x%3D%22292.5%22%20y%3D%22750%22%20width%3D%22255%22%20height%3D%2260%22%20as%3D%22geometry%22%2F%3E%3C%2FmxCell%3E%3C%2Froot%3E%3C%2FmxGraphModel%3E&lt;/span&gt;" style="text;strokeColor=none;fillColor=none;align=left;verticalAlign=middle;spacingLeft=4;spacingRight=4;overflow=hidden;points=[[0,0.5],[1,0.5]];portConstraint=eastwest;rotatable=0;whiteSpace=wrap;html=1;fontFamily=Helvetica;fontSize=12;fontColor=default;" parent="eoRUsW0Bb9fulezQUEwn-64" vertex="1">
          <mxGeometry y="30" width="280" height="60" as="geometry" />
        </mxCell>
        <mxCell id="eoRUsW0Bb9fulezQUEwn-68" value="&lt;span style=&quot;font-size: 14px;&quot;&gt;- Stores data relating to responses from work units being executed on client computers&lt;/span&gt;" style="text;strokeColor=none;fillColor=none;align=left;verticalAlign=middle;spacingLeft=4;spacingRight=4;overflow=hidden;points=[[0,0.5],[1,0.5]];portConstraint=eastwest;rotatable=0;whiteSpace=wrap;html=1;fontFamily=Helvetica;fontSize=12;fontColor=default;" parent="eoRUsW0Bb9fulezQUEwn-64" vertex="1">
          <mxGeometry y="90" width="280" height="70" as="geometry" />
        </mxCell>
        <mxCell id="eoRUsW0Bb9fulezQUEwn-60" value="&lt;span style=&quot;font-size: 16px;&quot;&gt;&lt;b&gt;boinc/server_apache&lt;/b&gt;&lt;/span&gt;" style="swimlane;fontStyle=0;childLayout=stackLayout;horizontal=1;startSize=30;horizontalStack=0;resizeParent=1;resizeParentMax=0;resizeLast=0;collapsible=1;marginBottom=0;whiteSpace=wrap;html=1;rounded=0;strokeColor=default;align=center;verticalAlign=middle;fontFamily=Helvetica;fontSize=12;fontColor=default;fillColor=default;" parent="eoRUsW0Bb9fulezQUEwn-4" vertex="1">
          <mxGeometry y="270" width="280" height="160" as="geometry" />
        </mxCell>
        <mxCell id="eoRUsW0Bb9fulezQUEwn-69" value="&lt;font style=&quot;font-size: 14px;&quot;&gt;- Responsible for hosting the web server for the project&lt;/font&gt;" style="text;strokeColor=none;fillColor=none;align=left;verticalAlign=middle;spacingLeft=4;spacingRight=4;overflow=hidden;points=[[0,0.5],[1,0.5]];portConstraint=eastwest;rotatable=0;whiteSpace=wrap;html=1;fontFamily=Helvetica;fontSize=12;fontColor=default;" parent="eoRUsW0Bb9fulezQUEwn-60" vertex="1">
          <mxGeometry y="30" width="280" height="60" as="geometry" />
        </mxCell>
        <mxCell id="eoRUsW0Bb9fulezQUEwn-74" value="&lt;span style=&quot;font-size: 14px;&quot;&gt;- Will update with statistics from the project, showing user statistics&lt;/span&gt;" style="text;strokeColor=none;fillColor=none;align=left;verticalAlign=middle;spacingLeft=4;spacingRight=4;overflow=hidden;points=[[0,0.5],[1,0.5]];portConstraint=eastwest;rotatable=0;whiteSpace=wrap;html=1;fontFamily=Helvetica;fontSize=12;fontColor=default;" parent="eoRUsW0Bb9fulezQUEwn-60" vertex="1">
          <mxGeometry y="90" width="280" height="70" as="geometry" />
        </mxCell>
        <mxCell id="eoRUsW0Bb9fulezQUEwn-56" value="&lt;span style=&quot;font-size: 16px;&quot;&gt;&lt;b&gt;boinc/server_makeproject&lt;/b&gt;&lt;/span&gt;" style="swimlane;fontStyle=0;childLayout=stackLayout;horizontal=1;startSize=30;horizontalStack=0;resizeParent=1;resizeParentMax=0;resizeLast=0;collapsible=1;marginBottom=0;whiteSpace=wrap;html=1;rounded=0;strokeColor=default;align=center;verticalAlign=middle;fontFamily=Helvetica;fontSize=12;fontColor=default;fillColor=default;" parent="eoRUsW0Bb9fulezQUEwn-4" vertex="1">
          <mxGeometry y="430" width="280" height="150" as="geometry" />
        </mxCell>
        <mxCell id="eoRUsW0Bb9fulezQUEwn-70" value="&lt;font style=&quot;font-size: 14px;&quot;&gt;- Responsible for project init. tasks, such as creating directories and copying files from host disk&amp;nbsp;&lt;/font&gt;" style="text;strokeColor=none;fillColor=none;align=left;verticalAlign=middle;spacingLeft=4;spacingRight=4;overflow=hidden;points=[[0,0.5],[1,0.5]];portConstraint=eastwest;rotatable=0;whiteSpace=wrap;html=1;fontFamily=Helvetica;fontSize=12;fontColor=default;" parent="eoRUsW0Bb9fulezQUEwn-56" vertex="1">
          <mxGeometry y="30" width="280" height="60" as="geometry" />
        </mxCell>
        <mxCell id="eoRUsW0Bb9fulezQUEwn-73" value="&lt;font style=&quot;font-size: 14px;&quot;&gt;- Image shuts down upon completing init. tasks&lt;/font&gt;" style="text;strokeColor=none;fillColor=none;align=left;verticalAlign=middle;spacingLeft=4;spacingRight=4;overflow=hidden;points=[[0,0.5],[1,0.5]];portConstraint=eastwest;rotatable=0;whiteSpace=wrap;html=1;fontFamily=Helvetica;fontSize=12;fontColor=default;" parent="eoRUsW0Bb9fulezQUEwn-56" vertex="1">
          <mxGeometry y="90" width="280" height="60" as="geometry" />
        </mxCell>
        <mxCell id="eoRUsW0Bb9fulezQUEwn-36" style="edgeStyle=orthogonalEdgeStyle;rounded=0;orthogonalLoop=1;jettySize=auto;html=1;exitX=0.5;exitY=1;exitDx=0;exitDy=0;entryX=0.5;entryY=0;entryDx=0;entryDy=0;fontFamily=Helvetica;fontSize=12;fontColor=default;" parent="1" source="eoRUsW0Bb9fulezQUEwn-18" target="eoRUsW0Bb9fulezQUEwn-29" edge="1">
          <mxGeometry relative="1" as="geometry" />
        </mxCell>
        <mxCell id="eoRUsW0Bb9fulezQUEwn-18" value="&lt;font style=&quot;font-size: 16px;&quot;&gt;Docker Images&lt;/font&gt;&lt;div style=&quot;font-size: 16px;&quot;&gt;&lt;font style=&quot;font-size: 16px;&quot;&gt;&lt;br&gt;&lt;/font&gt;&lt;/div&gt;&lt;div style=&quot;font-size: 16px;&quot;&gt;&lt;font style=&quot;font-size: 16px;&quot;&gt;&lt;span class=&quot;author flex-self-stretch&quot;&gt;&lt;a href=&quot;https://github.com/marius311&quot; data-octo-dimensions=&quot;link_type:self&quot; data-octo-click=&quot;hovercard-link-click&quot; data-hovercard-url=&quot;/users/marius311/hovercard&quot; data-hovercard-type=&quot;user&quot; rel=&quot;author&quot; class=&quot;url fn&quot;&gt;marius311&lt;/a&gt;&lt;/span&gt;&lt;span class=&quot;mx-1 flex-self-stretch color-fg-muted&quot;&gt;/&lt;/span&gt;&lt;/font&gt;&lt;strong class=&quot;mr-2 flex-self-stretch&quot;&gt;&lt;font style=&quot;font-size: 16px;&quot;&gt;&lt;a href=&quot;https://github.com/marius311/boinc-server-docker&quot; data-turbo-frame=&quot;repo-content-turbo-frame&quot; data-pjax=&quot;#repo-content-pjax-container&quot;&gt;boinc-server-docker&lt;/a&gt;&lt;/font&gt;&lt;/strong&gt;&lt;br&gt;&lt;/div&gt;" style="rounded=0;whiteSpace=wrap;html=1;" parent="1" vertex="1">
          <mxGeometry x="40" y="30" width="280" height="90" as="geometry" />
        </mxCell>
        <mxCell id="eoRUsW0Bb9fulezQUEwn-37" style="edgeStyle=orthogonalEdgeStyle;rounded=0;orthogonalLoop=1;jettySize=auto;html=1;entryX=0.5;entryY=0;entryDx=0;entryDy=0;fontFamily=Helvetica;fontSize=12;fontColor=default;" parent="1" source="eoRUsW0Bb9fulezQUEwn-29" target="eoRUsW0Bb9fulezQUEwn-4" edge="1">
          <mxGeometry relative="1" as="geometry" />
        </mxCell>
        <mxCell id="eoRUsW0Bb9fulezQUEwn-29" value="&lt;font style=&quot;font-size: 24px;&quot;&gt;Dockerfiles&lt;/font&gt;" style="swimlane;fontStyle=0;childLayout=stackLayout;horizontal=1;startSize=40;horizontalStack=0;resizeParent=1;resizeParentMax=0;resizeLast=0;collapsible=1;marginBottom=0;whiteSpace=wrap;html=1;rounded=0;strokeColor=default;align=center;verticalAlign=middle;fontFamily=Helvetica;fontSize=12;fontColor=default;fillColor=default;" parent="1" vertex="1">
          <mxGeometry x="40" y="170" width="280" height="140" as="geometry">
            <mxRectangle x="280" y="370" width="150" height="40" as="alternateBounds" />
          </mxGeometry>
        </mxCell>
        <mxCell id="eoRUsW0Bb9fulezQUEwn-30" value="&lt;font style=&quot;font-size: 14px;&quot;&gt;- Stores custom Docker commands to modify the existing image to our project&lt;/font&gt;" style="text;strokeColor=none;fillColor=none;align=left;verticalAlign=middle;spacingLeft=4;spacingRight=4;overflow=hidden;points=[[0,0.5],[1,0.5]];portConstraint=eastwest;rotatable=0;whiteSpace=wrap;html=1;fontFamily=Helvetica;fontSize=12;fontColor=default;" parent="eoRUsW0Bb9fulezQUEwn-29" vertex="1">
          <mxGeometry y="40" width="280" height="60" as="geometry" />
        </mxCell>
        <mxCell id="eoRUsW0Bb9fulezQUEwn-35" value="&lt;font style=&quot;font-size: 14px;&quot;&gt;- Runs during Docker container init. locally&lt;/font&gt;" style="text;strokeColor=none;fillColor=none;align=left;verticalAlign=middle;spacingLeft=4;spacingRight=4;overflow=hidden;points=[[0,0.5],[1,0.5]];portConstraint=eastwest;rotatable=0;whiteSpace=wrap;html=1;fontFamily=Helvetica;fontSize=12;fontColor=default;" parent="eoRUsW0Bb9fulezQUEwn-29" vertex="1">
          <mxGeometry y="100" width="280" height="40" as="geometry" />
        </mxCell>
        <mxCell id="wRtq7IlWN-tghe5e4vGb-1" value="&lt;font style=&quot;font-size: 24px;&quot;&gt;Job Queue&lt;/font&gt;" style="swimlane;fontStyle=0;childLayout=stackLayout;horizontal=1;startSize=40;horizontalStack=0;resizeParent=1;resizeParentMax=0;resizeLast=0;collapsible=1;marginBottom=0;whiteSpace=wrap;html=1;rounded=0;strokeColor=default;align=center;verticalAlign=middle;fontFamily=Helvetica;fontSize=12;fontColor=default;fillColor=default;" vertex="1" parent="1">
          <mxGeometry x="390" y="360" width="280" height="170" as="geometry">
            <mxRectangle x="280" y="370" width="150" height="40" as="alternateBounds" />
          </mxGeometry>
        </mxCell>
        <mxCell id="wRtq7IlWN-tghe5e4vGb-2" value="&lt;font style=&quot;font-size: 14px;&quot;&gt;- Maintained on the BOINC server through the services running on Docker&lt;/font&gt;" style="text;strokeColor=none;fillColor=none;align=left;verticalAlign=middle;spacingLeft=4;spacingRight=4;overflow=hidden;points=[[0,0.5],[1,0.5]];portConstraint=eastwest;rotatable=0;whiteSpace=wrap;html=1;fontFamily=Helvetica;fontSize=12;fontColor=default;" vertex="1" parent="wRtq7IlWN-tghe5e4vGb-1">
          <mxGeometry y="40" width="280" height="60" as="geometry" />
        </mxCell>
        <mxCell id="wRtq7IlWN-tghe5e4vGb-3" value="&lt;font style=&quot;font-size: 14px;&quot;&gt;- Stores a list of jobs that the server has requested to provision out to clients when they arrive&lt;/font&gt;" style="text;strokeColor=none;fillColor=none;align=left;verticalAlign=middle;spacingLeft=4;spacingRight=4;overflow=hidden;points=[[0,0.5],[1,0.5]];portConstraint=eastwest;rotatable=0;whiteSpace=wrap;html=1;fontFamily=Helvetica;fontSize=12;fontColor=default;" vertex="1" parent="wRtq7IlWN-tghe5e4vGb-1">
          <mxGeometry y="100" width="280" height="70" as="geometry" />
        </mxCell>
        <mxCell id="wRtq7IlWN-tghe5e4vGb-8" style="edgeStyle=orthogonalEdgeStyle;rounded=0;orthogonalLoop=1;jettySize=auto;html=1;entryX=0.5;entryY=0;entryDx=0;entryDy=0;" edge="1" parent="1" source="wRtq7IlWN-tghe5e4vGb-4" target="wRtq7IlWN-tghe5e4vGb-1">
          <mxGeometry relative="1" as="geometry" />
        </mxCell>
        <mxCell id="wRtq7IlWN-tghe5e4vGb-4" value="&lt;font style=&quot;font-size: 24px;&quot;&gt;Tasks&lt;/font&gt;" style="swimlane;fontStyle=0;childLayout=stackLayout;horizontal=1;startSize=40;horizontalStack=0;resizeParent=1;resizeParentMax=0;resizeLast=0;collapsible=1;marginBottom=0;whiteSpace=wrap;html=1;rounded=0;strokeColor=default;align=center;verticalAlign=middle;fontFamily=Helvetica;fontSize=12;fontColor=default;fillColor=default;" vertex="1" parent="1">
          <mxGeometry x="390" y="70" width="280" height="240" as="geometry">
            <mxRectangle x="280" y="370" width="150" height="40" as="alternateBounds" />
          </mxGeometry>
        </mxCell>
        <mxCell id="wRtq7IlWN-tghe5e4vGb-5" value="&lt;font style=&quot;font-size: 14px;&quot;&gt;- Contains the code that actually does the work we&#39;re trying to complete towards solving a problem&lt;/font&gt;" style="text;strokeColor=none;fillColor=none;align=left;verticalAlign=middle;spacingLeft=4;spacingRight=4;overflow=hidden;points=[[0,0.5],[1,0.5]];portConstraint=eastwest;rotatable=0;whiteSpace=wrap;html=1;fontFamily=Helvetica;fontSize=12;fontColor=default;" vertex="1" parent="wRtq7IlWN-tghe5e4vGb-4">
          <mxGeometry y="40" width="280" height="60" as="geometry" />
        </mxCell>
        <mxCell id="wRtq7IlWN-tghe5e4vGb-6" value="&lt;font style=&quot;font-size: 14px;&quot;&gt;- Lives on the server and are programatically queued by the server for clients to pick up&lt;/font&gt;" style="text;strokeColor=none;fillColor=none;align=left;verticalAlign=middle;spacingLeft=4;spacingRight=4;overflow=hidden;points=[[0,0.5],[1,0.5]];portConstraint=eastwest;rotatable=0;whiteSpace=wrap;html=1;fontFamily=Helvetica;fontSize=12;fontColor=default;" vertex="1" parent="wRtq7IlWN-tghe5e4vGb-4">
          <mxGeometry y="100" width="280" height="70" as="geometry" />
        </mxCell>
        <mxCell id="wRtq7IlWN-tghe5e4vGb-7" value="&lt;font style=&quot;font-size: 14px;&quot;&gt;-&amp;nbsp; Handles file write, database storage, timing, and critical execution periods through the BOINC API&lt;/font&gt;" style="text;strokeColor=none;fillColor=none;align=left;verticalAlign=middle;spacingLeft=4;spacingRight=4;overflow=hidden;points=[[0,0.5],[1,0.5]];portConstraint=eastwest;rotatable=0;whiteSpace=wrap;html=1;fontFamily=Helvetica;fontSize=12;fontColor=default;" vertex="1" parent="wRtq7IlWN-tghe5e4vGb-4">
          <mxGeometry y="170" width="280" height="70" as="geometry" />
        </mxCell>
        <mxCell id="wRtq7IlWN-tghe5e4vGb-10" value="&lt;font style=&quot;font-size: 24px;&quot;&gt;Clients&lt;/font&gt;" style="swimlane;fontStyle=0;childLayout=stackLayout;horizontal=1;startSize=40;horizontalStack=0;resizeParent=1;resizeParentMax=0;resizeLast=0;collapsible=1;marginBottom=0;whiteSpace=wrap;html=1;rounded=0;strokeColor=default;align=center;verticalAlign=middle;fontFamily=Helvetica;fontSize=12;fontColor=default;fillColor=default;" vertex="1" parent="1">
          <mxGeometry x="740" y="360" width="280" height="250" as="geometry">
            <mxRectangle x="280" y="370" width="150" height="40" as="alternateBounds" />
          </mxGeometry>
        </mxCell>
        <mxCell id="wRtq7IlWN-tghe5e4vGb-12" value="&lt;font style=&quot;font-size: 14px;&quot;&gt;- Represents users who have opened the BOINC client app on their machine and have logged on to the hosted BOINC server&lt;/font&gt;" style="text;strokeColor=none;fillColor=none;align=left;verticalAlign=middle;spacingLeft=4;spacingRight=4;overflow=hidden;points=[[0,0.5],[1,0.5]];portConstraint=eastwest;rotatable=0;whiteSpace=wrap;html=1;fontFamily=Helvetica;fontSize=12;fontColor=default;" vertex="1" parent="wRtq7IlWN-tghe5e4vGb-10">
          <mxGeometry y="40" width="280" height="70" as="geometry" />
        </mxCell>
        <mxCell id="wRtq7IlWN-tghe5e4vGb-13" value="&lt;font style=&quot;font-size: 14px;&quot;&gt;- Once registered with the project, can start taking jobs from the Job Queue&lt;/font&gt;" style="text;strokeColor=none;fillColor=none;align=left;verticalAlign=middle;spacingLeft=4;spacingRight=4;overflow=hidden;points=[[0,0.5],[1,0.5]];portConstraint=eastwest;rotatable=0;whiteSpace=wrap;html=1;fontFamily=Helvetica;fontSize=12;fontColor=default;" vertex="1" parent="wRtq7IlWN-tghe5e4vGb-10">
          <mxGeometry y="110" width="280" height="70" as="geometry" />
        </mxCell>
        <mxCell id="wRtq7IlWN-tghe5e4vGb-14" value="&lt;font style=&quot;font-size: 14px;&quot;&gt;- Returns specified data requested by the job once complete&lt;/font&gt;" style="text;strokeColor=none;fillColor=none;align=left;verticalAlign=middle;spacingLeft=4;spacingRight=4;overflow=hidden;points=[[0,0.5],[1,0.5]];portConstraint=eastwest;rotatable=0;whiteSpace=wrap;html=1;fontFamily=Helvetica;fontSize=12;fontColor=default;" vertex="1" parent="wRtq7IlWN-tghe5e4vGb-10">
          <mxGeometry y="180" width="280" height="70" as="geometry" />
        </mxCell>
        <mxCell id="wRtq7IlWN-tghe5e4vGb-15" style="edgeStyle=orthogonalEdgeStyle;rounded=0;orthogonalLoop=1;jettySize=auto;html=1;" edge="1" parent="1" source="wRtq7IlWN-tghe5e4vGb-2" target="wRtq7IlWN-tghe5e4vGb-10">
          <mxGeometry relative="1" as="geometry">
            <Array as="points">
              <mxPoint x="740" y="430" />
              <mxPoint x="740" y="430" />
            </Array>
          </mxGeometry>
        </mxCell>
        <mxCell id="wRtq7IlWN-tghe5e4vGb-18" value="&lt;font style=&quot;font-size: 14px;&quot;&gt;Data regarding completed jobs is stored in the MySQL database, available to be used by the Task templates for future jobs if needed&lt;/font&gt;" style="text;strokeColor=none;fillColor=none;align=left;verticalAlign=middle;spacingLeft=4;spacingRight=4;overflow=hidden;points=[[0,0.5],[1,0.5]];portConstraint=eastwest;rotatable=0;whiteSpace=wrap;html=1;fontFamily=Helvetica;fontSize=12;fontColor=default;" vertex="1" parent="1">
          <mxGeometry x="390" y="560" width="280" height="70" as="geometry" />
        </mxCell>
        <mxCell id="wRtq7IlWN-tghe5e4vGb-19" style="edgeStyle=orthogonalEdgeStyle;rounded=0;orthogonalLoop=1;jettySize=auto;html=1;entryX=1.001;entryY=0.104;entryDx=0;entryDy=0;entryPerimeter=0;" edge="1" parent="1" source="wRtq7IlWN-tghe5e4vGb-10" target="eoRUsW0Bb9fulezQUEwn-64">
          <mxGeometry relative="1" as="geometry">
            <Array as="points">
              <mxPoint x="360" y="550" />
              <mxPoint x="360" y="487" />
            </Array>
          </mxGeometry>
        </mxCell>
        <mxCell id="wRtq7IlWN-tghe5e4vGb-20" style="edgeStyle=orthogonalEdgeStyle;rounded=0;orthogonalLoop=1;jettySize=auto;html=1;" edge="1" parent="1" source="eoRUsW0Bb9fulezQUEwn-60" target="wRtq7IlWN-tghe5e4vGb-10">
          <mxGeometry relative="1" as="geometry" />
        </mxCell>
        <mxCell id="wRtq7IlWN-tghe5e4vGb-21" value="&lt;font style=&quot;font-size: 14px;&quot;&gt;Data regarding client completion and status is tracked and sent back to the hosted Apache server to show statistics regarding user progress&lt;/font&gt;" style="text;strokeColor=none;fillColor=none;align=left;verticalAlign=middle;spacingLeft=4;spacingRight=4;overflow=hidden;points=[[0,0.5],[1,0.5]];portConstraint=eastwest;rotatable=0;whiteSpace=wrap;html=1;fontFamily=Helvetica;fontSize=12;fontColor=default;" vertex="1" parent="1">
          <mxGeometry x="470" y="720" width="280" height="70" as="geometry" />
        </mxCell>
      </root>
    </mxGraphModel>
  </diagram>
</mxfile>
